<?xml version="1.0" encoding="utf-8"?>
<!-- Generator: Adobe Illustrator 18.0.0, SVG Export Plug-In . SVG Version: 6.00 Build 0)  -->
<!DOCTYPE svg PUBLIC "-//W3C//DTD SVG 1.1//EN" "http://www.w3.org/Graphics/SVG/1.1/DTD/svg11.dtd">
<svg version="1.1" id="Layer_1" xmlns="http://www.w3.org/2000/svg" xmlns:xlink="http://www.w3.org/1999/xlink" x="0px" y="0px"
	 viewBox="0 0 2000 1500" enable-background="new 0 0 2000 1500" xml:space="preserve">
<rect x="-35.28418" y="-36.25983" fill="#0288D1" width="2073.20801" height="1566.15735"/>
<g>
	<polygon fill="#CDCDCD" points="267.99899,1006.9873 999.99902,1332.9873 999.99902,702.9873 267.99899,418.9873 	"/>
	<polygon fill="#6C6C6C" points="1731.99902,1006.9873 999.99902,1332.9873 999.99902,702.9873 1731.99902,418.9873 	"/>
	<polygon fill="#EEEEEE" points="267.99899,418.9873 999.99902,702.9873 1731.99902,418.9873 998.99799,165.5078 	"/>
	<polygon points="823.99902,343.9873 1184.58398,496.48541 1160.99902,507.98734 795.99902,351.9873 	"/>
	<path fill="#FFFFFF" stroke="#000000" stroke-width="2" stroke-miterlimit="10" d="M1153.60059,504.07812
		c0,0,82.24316-224.30273,190.25391-254.30562l-302.7666-112.17041c0,0-150.2793,76.1669-186.28223,238.18309L1153.60059,504.07812z
		"/>
</g>
<g>
	<path fill="#FFFFFF" d="M574.40326,949.01172c2.20612,5.59381,4.78033,9.5694,9.30573,11.39752
		c4.69427,1.8974,8.11182-1.63971,8.17719-7.4151c0.15485-13.59271-18.05811-14.93164-17.87006-31.45215
		c0.10791-9.42676,6.07367-11.64056,13.02875-8.83105c2.78271,1.125,6.13232,3.58008,8.25153,6.8623
		c-0.71777,1.61719-1.146,3.5-1.6333,5.35938l-0.58203-0.23529c-1.16949-4.43854-3.69385-7.88092-7.11377-9.26373
		c-3.99902-1.61426-7.34381,0.40924-7.40277,5.59961c-0.15295,13.44733,18.1709,15.41888,17.99304,30.98633
		c-0.11853,10.45117-6.62549,14.05957-14.50879,10.87408c-2.84229-1.14752-7.46088-4.55573-9.40277-8.05573
		c0.60602-1.88275,0.91803-3.95898,1.17578-6.06055L574.40326,949.01172L574.40326,949.01172z"/>
	<path fill="#FFFFFF" d="M625.23047,975.7959c3.53711,1.5752,7.01953,2.6875,10.49664,3.94733
		c1.8559,0.6767,3.65619,1.11029,5.51556,1.5683c-0.06451,0.78131-0.19,1.3916-0.1983,2.12311
		c-0.00781,0.73138,0.10211,1.50775,0.14899,2.26166l-21.10205-8.52637l0.56689-49.77344
		c0.80957,0.40234,1.67627,0.89941,2.55029,1.25195c0.80908,0.32819,1.62347,0.5108,2.5498,0.80853L625.23047,975.7959
		L625.23047,975.7959z"/>
	<path fill="#FFFFFF" d="M526.06097,920.7959c0.12939-0.35345,0.26031-0.71777,0.39514-1.07318l7.66644-18.78027l7.05615,24.73138
		c0.13666,0.46387,0.26318,0.93066,0.3999,1.39258L526.06097,920.7959L526.06097,920.7959z M536.31836,892.21191l-1.33154-0.53809
		l-18.67041,43.77539c0.64105,0.1875,1.2793,0.29877,2.02979,0.6026c0.69684,0.2793,1.33643,0.6875,2.14447,1.0849
		c1.33551-4.87012,2.9624-9.32812,4.60791-13.7431l17.44489,7.0498c1.69232,6.04681,3.22266,12.08301,4.50092,17.4248
		c0.9834,0.32422,1.97272,0.57806,3.0733,1.0224c0.98682,0.40039,1.9126,0.9209,3.01318,1.4375L536.31836,892.21191
		L536.31836,892.21191z"/>
	<path fill="#FFFFFF" d="M670.65918,979.23138c0.13184-0.35248,0.26172-0.7168,0.39502-1.07117l7.66748-18.78131l7.05713,24.73151
		c0.13666,0.46381,0.26318,0.92957,0.39838,1.3916L670.65918,979.23138L670.65918,979.23138z M680.91803,950.64844l-1.33215-0.539
		l-18.67181,43.77631c0.64252,0.1875,1.28125,0.29889,2.03174,0.60156c0.69531,0.28131,1.33588,0.68854,2.14355,1.08594
		c1.33691-4.8681,2.9624-9.33002,4.60883-13.74414l17.44489,7.05078c1.69232,6.04883,3.22314,12.08301,4.5014,17.42383
		c0.98444,0.32721,1.9707,0.57812,3.07233,1.02252c0.9873,0.40131,1.91406,0.92175,3.01422,1.4375L680.91803,950.64844
		L680.91803,950.64844z"/>
	<polygon fill="#FFFFFF" points="706.3291,733.64752 516.50201,656.93262 516.49707,657.38385 516.4873,658.29883 
		516.48682,658.30084 706.31348,735.01373 706.3291,733.64752 	"/>
	<polygon fill="#FFFFFF" points="706.15186,749.21002 538.3418,681.39362 531.479,678.58398 516.35638,669.75684 
		516.30908,673.86621 706.13617,750.5791 706.15186,749.21002 	"/>
	<path fill="#FFFFFF" d="M705.98578,763.82233c-5.37451-1.9375-11.30902-5.79889-15.53711-4.99323l-131.04486-52.95898
		l-6.7085-8.15918l-36.48975-14.74609l-0.07819,6.85358l189.82721,76.71277L705.98578,763.82233L705.98578,763.82233z"/>
	<polygon fill="#FFFFFF" points="705.85059,775.66699 671.27777,761.69629 664.50781,763.79492 581.21777,730.13483 
		573.8501,722.32324 516.02386,698.95312 515.95117,705.34473 603.99017,740.71289 705.78027,781.85065 705.85059,775.66699 	"/>
	<path fill="#FFFFFF" d="M705.67328,791.19733l-61.54626-24.87311c-11.73346,0.3067-26.62213-6.16992-38.25153-14.99902
		l-90.02832-36.84076l-0.07819,6.84857l189.83209,76.26068L705.67328,791.19733L705.67328,791.19733z"/>
	<path fill="#FFFFFF" d="M705.49707,806.72852L538.875,739.3916c-7.45612-3.90619-14.95209-9.55566-23.17334-12.15228
		l-0.11475,10.08099l189.83246,76.2627L705.49707,806.72852L705.49707,806.72852z"/>
	<polygon fill="#FFFFFF" points="705.31537,822.71582 566.47357,766.60449 558.08502,757.25 515.56097,739.61334 
		515.40479,753.30762 705.23627,829.57129 705.31537,822.71582 	"/>
	<polygon fill="#FFFFFF" points="705.13281,838.70209 583.19727,789.42682 576.42816,780.2666 515.37836,755.59473 
		515.22308,769.29395 705.05957,845.10553 705.13281,838.70209 	"/>
	<path fill="#FFFFFF" d="M704.98676,851.52643c-32.99506-8.34674-70.1142-26.53033-104.25098-39.40924l-7.97797-9.64935
		L515.20166,771.125l-0.15527,13.70312l189.82617,76.71387L704.98676,851.52643L704.98676,851.52643z"/>
	<path fill="#FFFFFF" d="M704.84668,863.82623l-41.01611-16.57526c-13.33258-0.80078-29.0567-5.31738-42.2774-16.62799
		l-106.53314-43.50867l-0.15533,13.7002l189.82672,76.71381L704.84668,863.82623L704.84668,863.82623z"/>
	<polygon fill="#FFFFFF" points="704.66547,879.8125 514.83838,803.09674 514.6875,816.34772 704.51416,893.06152 
		704.66547,879.8125 	"/>
	<polygon fill="#FFFFFF" points="704.48291,895.80084 514.65631,819.08691 514.50439,832.33502 704.33148,909.05084 
		704.48291,895.80084 	"/>
	<polygon fill="#FFFFFF" points="704.30127,911.78809 514.47406,835.07422 514.32861,847.86621 704.15576,924.58014 
		704.30127,911.78809 	"/>
	<polygon fill="#FFFFFF" points="704.12347,927.32129 514.29736,850.60645 514.14111,864.31049 703.96826,941.02441 
		704.12347,927.32129 	"/>
</g>
<g>
	<path fill="#FFFFFF" d="M1238.52344,769.32715l26.85352-11.10547c10.86914-4.49512,18.08398-2.19238,17.66406,13.96191
		c-0.2207,8.50293-3.17285,15.6123-8.22266,21.30469c6.87402,0.16211,10.17969,6.8457,9.89844,17.65625
		c-0.45801,17.6123-10.4834,29.20703-20.79395,33.47168l-27.65234,11.43555L1238.52344,769.32715z M1249.20312,836.0459
		l13.42676-5.55371c4.95508-2.04883,9.33398-6.26465,9.56738-15.25195c0.23047-8.86719-3.35352-10.86914-8.70898-8.6543
		l-13.66602,5.65234L1249.20312,836.0459z M1250.15918,799.24121l12.70801-5.25586
		c4.39453-1.81738,7.75098-6.20996,7.94043-13.49707c0.21484-8.25977-3.89746-8.24219-8.37305-6.3916l-11.74805,4.85938
		L1250.15918,799.24121z"/>
	<path fill="#FFFFFF" d="M1310.37305,739.61328l12.86816-5.32178l19.08594,77.8999l-13.02637,5.38672l-3.81445-17.52734
		l-21.33887,8.8252l-4.97754,21.16309l-12.70801,5.25586L1310.37305,739.61328z M1307.79297,793.30957l14.78516-6.11426
		l-6.36621-28.84961l-0.16016,0.06641L1307.79297,793.30957z"/>
	<path fill="#FFFFFF" d="M1349.53711,723.41602l12.54785-5.18848l-1.83594,70.69141l27.8125-11.50293l-0.41699,16.0332
		l-40.36035,16.69141L1349.53711,723.41602z"/>
	<path fill="#FFFFFF" d="M1396.93066,703.81592l12.54785-5.18896l-1.83594,70.69141l27.8125-11.50293l-0.41699,16.0332
		l-40.36035,16.69238L1396.93066,703.81592z"/>
	<path fill="#FFFFFF" d="M1469.95312,671.57324c17.66309-7.30469,27.53223,8.43945,26.86328,34.19043
		c-0.65039,25.02246-11.56055,49.36035-29.22363,56.66504c-17.66211,7.30469-27.53223-8.43945-26.88184-33.46191
		C1441.37988,703.21582,1452.29102,678.87793,1469.95312,671.57324z M1468.00977,746.39453
		c11.26953-4.66016,15.88281-20.9873,16.25879-35.44141c0.39453-15.18262-3.46191-28.00684-14.73145-23.34668
		c-11.26953,4.66064-15.88281,20.98828-16.27734,36.1709C1452.88379,738.23145,1456.74023,751.05469,1468.00977,746.39453z"/>
	<path fill="#FFFFFF" d="M1518.71777,669.30957l-17.10352,7.07324l0.41602-16.03223l46.75391-19.33545l-0.41602,16.03223
		l-17.10254,7.07275l-1.83691,70.69238l-12.54785,5.18945L1518.71777,669.30957z"/>
	<path fill="#FFFFFF" d="M1307.26758,885.09375l26.85352-11.10645c10.86914-4.49512,18.08203-2.19238,17.66309,13.96191
		c-0.22168,8.50391-3.17285,15.6123-8.22266,21.30566c6.87402,0.16113,10.17969,6.84473,9.89844,17.65527
		c-0.45703,17.6123-10.4834,29.20898-20.79395,33.47266l-27.65234,11.43555L1307.26758,885.09375z M1317.94727,951.81152
		l13.42676-5.55371c4.95508-2.04883,9.33301-6.26367,9.56641-15.25195c0.23047-8.86719-3.35352-10.86914-8.70898-8.6543
		l-13.66602,5.65234L1317.94727,951.81152z M1318.90332,915.00781l12.70801-5.25586c4.39453-1.81738,7.75-6.20996,7.93945-13.49805
		c0.21484-8.25977-3.89746-8.24121-8.37305-6.39062l-11.74805,4.85938L1318.90332,915.00781z"/>
	<path fill="#FFFFFF" d="M1389.16113,849.18262c17.66211-7.30469,27.53125,8.43945,26.8623,34.19043
		c-0.64941,25.02148-11.55957,49.35938-29.22168,56.66406c-17.66309,7.30469-27.53223-8.43945-26.88281-33.46094
		C1360.58789,880.8252,1371.49805,856.4873,1389.16113,849.18262z M1387.21777,924.00293
		c11.26855-4.66016,15.88379-20.98633,16.25879-35.44043c0.39453-15.18359-3.46289-28.00781-14.73145-23.34766
		s-15.88379,20.98828-16.27832,36.17188C1372.0918,915.84082,1375.94922,928.66309,1387.21777,924.00293z"/>
	<path fill="#FFFFFF" d="M1438.62695,871.62109l-17.30859-33.69531l14.5459-6.01562l10.46973,23.06641l12.30859-32.48633
		l13.74609-5.68457l-19.37891,48.9873l18.72363,37.07617l-14.94629,6.18164l-11.68652-24.8457l-13.48828,35.25781l-14.14551,5.84961
		L1438.62695,871.62109z"/>
</g>
</svg>
